<svg width="34" height="35" viewBox="0 0 34 35" fill="none" xmlns="http://www.w3.org/2000/svg">
<path d="M32.3642 32.1086C30.0185 33.4245 25.7296 30.7339 21.5794 25.7552C22.8937 29.773 22.8471 32.9789 21.1748 33.917C19.2899 34.9743 15.8694 32.8531 12.5824 28.915C13.0959 31.4203 12.7188 33.4478 11.3796 34.1991C9.15731 35.4457 5.12691 32.7055 2.37749 28.0786C-0.371935 23.4518 -0.799227 18.6904 1.42311 17.4438C2.76226 16.6926 4.75796 17.3891 6.73428 19.0737C4.86745 14.3388 4.68696 10.4 6.57191 9.3426C8.2442 8.40453 11.1252 9.96834 14.0493 13.0831C11.6867 7.10189 11.433 2.14797 13.7787 0.832164C16.9535 -0.948705 23.6876 4.60909 28.8199 13.2458C33.9521 21.8826 35.539 30.3278 32.3642 32.1086Z" fill="#4D55F5"/>
</svg>
