<svg width="16" height="17" viewBox="0 0 16 17" fill="none" xmlns="http://www.w3.org/2000/svg">
<path d="M5.33341 3.1665H4.80021C4.05347 3.1665 3.67983 3.1665 3.39461 3.31183C3.14373 3.43966 2.9399 3.64349 2.81207 3.89437C2.66675 4.17958 2.66675 4.55323 2.66675 5.29997V11.7C2.66675 12.4467 2.66675 12.8199 2.81207 13.1051C2.9399 13.356 3.14373 13.5602 3.39461 13.688C3.67955 13.8332 4.05274 13.8332 4.79802 13.8332H5.33341M5.33341 3.1665H11.2002C11.9469 3.1665 12.3198 3.1665 12.605 3.31183C12.8559 3.43966 13.0604 3.64349 13.1882 3.89437C13.3334 4.17931 13.3334 4.5525 13.3334 5.29778V11.7022C13.3334 12.4475 13.3334 12.8202 13.1882 13.1051C13.0604 13.356 12.8559 13.5602 12.605 13.688C12.3201 13.8332 11.9474 13.8332 11.2021 13.8332H5.33341M5.33341 3.1665V13.8332M8.00008 7.83317H10.6667M8.00008 5.83317H10.6667" stroke="#5177FF" stroke-linecap="round" stroke-linejoin="round"/>
</svg>
