<svg width="16" height="17" viewBox="0 0 16 17" fill="none" xmlns="http://www.w3.org/2000/svg">
<path d="M5.00651 13.7012C5.8875 14.2093 6.90968 14.5 7.99976 14.5C11.3135 14.5 14 11.8137 14 8.5C14 5.18629 11.3137 2.5 8 2.5C4.68629 2.5 2 5.18629 2 8.5C2 9.59008 2.2907 10.6123 2.7988 11.4933L2.80076 11.4967C2.84965 11.5814 2.87431 11.6242 2.88547 11.6646C2.896 11.7027 2.89895 11.7369 2.89625 11.7764C2.89335 11.8187 2.87907 11.8627 2.84979 11.9505L2.33724 13.4882L2.33659 13.4902C2.22845 13.8146 2.17438 13.9768 2.21292 14.0849C2.24653 14.1792 2.32112 14.2535 2.41536 14.2871C2.52321 14.3256 2.6847 14.2718 3.0077 14.1641L3.01172 14.1626L4.54936 13.6501C4.63692 13.6209 4.68142 13.6061 4.72373 13.6032C4.76317 13.6005 4.79718 13.6041 4.83529 13.6146C4.87579 13.6258 4.91856 13.6504 5.00376 13.6996L5.00651 13.7012Z" stroke="white" stroke-linecap="round" stroke-linejoin="round"/>
</svg>
