<svg width="16" height="17" viewBox="0 0 16 17" fill="none" xmlns="http://www.w3.org/2000/svg">
<path d="M2.66699 13.8336H13.3337M2.66699 13.8336V11.1669L8.00033 5.83357M2.66699 13.8336L5.33366 13.8336L10.667 8.50023M8.00033 5.83357L9.91274 3.92114L9.91389 3.92C10.1772 3.65675 10.309 3.52489 10.461 3.4755C10.5949 3.43199 10.7392 3.43199 10.873 3.4755C11.0249 3.52485 11.1567 3.65656 11.4195 3.91945L12.5794 5.07931C12.8434 5.34332 12.9755 5.47539 13.0249 5.62761C13.0684 5.7615 13.0684 5.90573 13.0249 6.03963C12.9755 6.19174 12.8436 6.3236 12.58 6.58724L12.5794 6.5878L10.667 8.50023M8.00033 5.83357L10.667 8.50023" stroke="white" stroke-linecap="round" stroke-linejoin="round"/>
</svg>
