<svg width="16" height="17" viewBox="0 0 16 17" fill="none" xmlns="http://www.w3.org/2000/svg">
<path d="M5.33366 3.1665H4.80046C4.05372 3.1665 3.68007 3.1665 3.39486 3.31183C3.14397 3.43966 2.94015 3.64349 2.81232 3.89437C2.66699 4.17958 2.66699 4.55323 2.66699 5.29997V11.7C2.66699 12.4467 2.66699 12.8199 2.81232 13.1051C2.94015 13.356 3.14397 13.5602 3.39486 13.688C3.67979 13.8332 4.05299 13.8332 4.79827 13.8332H5.33366M5.33366 3.1665H11.2005C11.9472 3.1665 12.32 3.1665 12.6053 3.31183C12.8561 3.43966 13.0606 3.64349 13.1885 3.89437C13.3337 4.17931 13.3337 4.5525 13.3337 5.29778V11.7022C13.3337 12.4475 13.3337 12.8202 13.1885 13.1051C13.0606 13.356 12.8561 13.5602 12.6053 13.688C12.3203 13.8332 11.9477 13.8332 11.2024 13.8332H5.33366M5.33366 3.1665V13.8332M8.00033 7.83317H10.667M8.00033 5.83317H10.667" stroke="white" stroke-linecap="round" stroke-linejoin="round"/>
</svg>
